<?xml version="1.0" encoding="utf-8"?>
<!-- Generator: Adobe Illustrator 16.0.0, SVG Export Plug-In . SVG Version: 6.00 Build 0)  -->
<!DOCTYPE svg PUBLIC "-//W3C//DTD SVG 1.1//EN" "http://www.w3.org/Graphics/SVG/1.1/DTD/svg11.dtd">
<svg version="1.1"
	 id="svg8" sodipodi:docname="logo.svg" inkscape:version="0.92.2 5c3e80d, 2017-08-06" xmlns:dc="http://purl.org/dc/elements/1.1/" xmlns:cc="http://creativecommons.org/ns#" xmlns:rdf="http://www.w3.org/1999/02/22-rdf-syntax-ns#" xmlns:svg="http://www.w3.org/2000/svg" xmlns:sodipodi="http://sodipodi.sourceforge.net/DTD/sodipodi-0.dtd" xmlns:inkscape="http://www.inkscape.org/namespaces/inkscape"
	 xmlns="http://www.w3.org/2000/svg" xmlns:xlink="http://www.w3.org/1999/xlink" x="0px" y="0px" width="48px" height="48px"
	 viewBox="0 0 48 48" enable-background="new 0 0 48 48" xml:space="preserve">
<sodipodi:namedview  units="px" id="base" inkscape:window-y="0" inkscape:window-x="0" inkscape:window-height="1006" inkscape:window-width="1680" inkscape:snap-path-mask="true" inkscape:snap-path-clip="true" inkscape:current-layer="layer1" inkscape:document-units="mm" inkscape:pageshadow="2" inkscape:pageopacity="0.0" inkscape:cy="24" guidetolerance="10000" inkscape:cx="24" gridtolerance="10000" inkscape:zoom="16.520833" objecttolerance="50" borderopacity="1.0" showguides="true" bordercolor="#666666" showgrid="true" pagecolor="#ffffff" inkscape:window-maximized="1">
	<inkscape:grid  type="xygrid" id="grid3703"></inkscape:grid>
</sodipodi:namedview>
<g id="layer1" transform="translate(0,-284.3)" inkscape:label="Layer 1" inkscape:groupmode="layer">
	<g id="g870">
		<path id="path834" inkscape:connector-curvature="0" fill="none" stroke="#FF5200" stroke-width="0.2646" d="M35,329.3
			c0,0,0-10-10-10s-20,0-20,0"/>
		<path id="path836" inkscape:connector-curvature="0" fill="none" stroke="#FF5200" stroke-width="0.2646" d="M5,319.3v-10l5,5l5-5
			l5,5l5-5l5,5v-10l-5-5l-5,5l-5-5l-5,5l-5-5v-5l0,0"/>
		<rect id="rect838" x="4" y="318.3" fill="#FF5200" width="2" height="2"/>
		<rect id="rect838_1_" x="4" y="293.3" fill="#FF5200" width="2" height="2"/>
		<path id="path840" inkscape:connector-curvature="0" fill="none" stroke="#FF5200" stroke-width="0.2646" d="M5,294.3h25
			c0,0,0-5,5-5s5,5,5,5h5"/>
		<circle id="path862" fill="#FF5200" cx="35" cy="294.3" r="3"/>
	</g>
</g>
</svg>
