<?xml version="1.0" encoding="utf-8"?>
<!-- Generator: Adobe Illustrator 21.1.0, SVG Export Plug-In . SVG Version: 6.00 Build 0)  -->
<svg version="1.1"
	 id="svg8" inkscape:version="0.92.2 5c3e80d, 2017-08-06" sodipodi:docname="logo.svg" xmlns:cc="http://creativecommons.org/ns#" xmlns:dc="http://purl.org/dc/elements/1.1/" xmlns:inkscape="http://www.inkscape.org/namespaces/inkscape" xmlns:rdf="http://www.w3.org/1999/02/22-rdf-syntax-ns#" xmlns:sodipodi="http://sodipodi.sourceforge.net/DTD/sodipodi-0.dtd" xmlns:svg="http://www.w3.org/2000/svg"
	 xmlns="http://www.w3.org/2000/svg" xmlns:xlink="http://www.w3.org/1999/xlink" x="0px" y="0px" viewBox="0 0 48 48"
	 style="enable-background:new 0 0 48 48;" xml:space="preserve">
<style type="text/css">
	.st0{fill:none;stroke:#FF5200;stroke-width:0.2646;}
	.st1{fill:#FF5200;}
</style>
<sodipodi:namedview  bordercolor="#666666" borderopacity="1.0" gridtolerance="10000" guidetolerance="10000" id="base" inkscape:current-layer="layer1" inkscape:cx="24" inkscape:cy="24" inkscape:document-units="mm" inkscape:pageopacity="0.0" inkscape:pageshadow="2" inkscape:snap-path-clip="true" inkscape:snap-path-mask="true" inkscape:window-height="1006" inkscape:window-maximized="1" inkscape:window-width="1680" inkscape:window-x="0" inkscape:window-y="0" inkscape:zoom="16.520833" objecttolerance="50" pagecolor="#ffffff" showgrid="true" showguides="true" units="px">
	<inkscape:grid  id="grid3703" type="xygrid"></inkscape:grid>
</sodipodi:namedview>
<g id="layer1" transform="translate(0,-284.3)" inkscape:groupmode="layer" inkscape:label="Layer 1">
	<g id="g870">
		<path id="path834" inkscape:connector-curvature="0" class="st0" d="M35,329.3c0,0,0-10-10-10s-20,0-20,0"/>
		<path id="path836" inkscape:connector-curvature="0" class="st0" d="M5,319.3v-10l5,5l5-5l5,5l5-5l5,5v-10l-5-5l-5,5l-5-5l-5,5
			l-5-5v-5l0,0"/>
		<rect id="rect838" x="4" y="318.3" class="st1" width="2" height="2"/>
		<rect id="rect838_1_" x="4" y="293.3" class="st1" width="2" height="2"/>
		<path id="path840" inkscape:connector-curvature="0" class="st0" d="M5,294.3h25c0,0,0-5,5-5s5,5,5,5h5"/>
		<circle id="path862" class="st1" cx="35" cy="294.3" r="3"/>
	</g>
</g>
</svg>
